<svg width="294" height="294" viewBox="0 0 294 294" fill="none" xmlns="http://www.w3.org/2000/svg">
<g filter="url(#filter0_d_643_111)">
<path d="M197.866 71.5557C205.74 69.3112 213.391 75.731 212.548 83.8757V83.8757C211.896 90.1793 216.435 95.835 222.73 96.5624V96.5624C230.864 97.5022 235.476 106.361 231.581 113.563V113.563C228.565 119.137 230.595 126.1 236.133 129.181V129.181C243.288 133.162 244.158 143.111 237.803 148.274V148.274C232.884 152.27 232.095 159.479 236.032 164.445V164.445C241.119 170.861 238.116 180.386 230.269 182.724V182.724C224.195 184.534 220.707 190.892 222.444 196.987V196.987C224.689 204.861 218.269 212.512 210.124 211.669V211.669C203.821 211.016 198.165 215.556 197.438 221.851V221.851C196.498 229.985 187.639 234.597 180.437 230.701V230.701C174.863 227.686 167.9 229.715 164.819 235.253V235.253C160.838 242.408 150.889 243.279 145.726 236.924V236.924C141.73 232.005 134.521 231.215 129.555 235.153V235.153C123.139 240.24 113.613 237.237 111.276 229.389V229.389C109.466 223.316 103.108 219.828 97.0134 221.565V221.565C89.1389 223.809 81.488 217.389 82.3311 209.245V209.245C82.9835 202.941 78.4443 197.285 72.1489 196.558V196.558C64.0148 195.618 59.4031 186.759 63.2988 179.557V179.557C66.3139 173.983 64.2845 167.021 58.7467 163.94V163.94C51.5915 159.959 50.721 150.009 57.0762 144.846V144.846C61.9949 140.85 62.7844 133.641 58.8472 128.675V128.675C53.7601 122.259 56.7634 112.734 64.6107 110.396V110.396C70.6841 108.587 74.1723 102.229 72.4351 96.134V96.134C70.1906 88.2595 76.6104 80.6086 84.7551 81.4516V81.4516C91.0587 82.1041 96.7145 77.5649 97.4418 71.2694V71.2694C98.3816 63.1354 107.241 58.5237 114.443 62.4194V62.4194C120.017 65.4345 126.979 63.4051 130.06 57.8673V57.8673C134.041 50.712 143.991 49.8416 149.154 56.1968V56.1968C153.15 61.1155 160.359 61.905 165.324 57.9678V57.9678C171.741 52.8807 181.266 55.884 183.604 63.7313V63.7313C185.413 69.8047 191.771 73.2929 197.866 71.5557V71.5557Z" fill="url(#paint0_linear_643_111)"/>
</g>
<path d="M125.208 149.982L171.464 139.851L172.565 144.878L126.309 155.01L125.208 149.982ZM141.228 124.226L146.032 123.174L156.433 170.659L151.629 171.711L141.228 124.226Z" fill="white"/>
<defs>
<filter id="filter0_d_643_111" x="17.5476" y="39.4788" width="249.416" height="249.416" filterUnits="userSpaceOnUse" color-interpolation-filters="sRGB">
<feFlood flood-opacity="0" result="BackgroundImageFix"/>
<feColorMatrix in="SourceAlpha" type="matrix" values="0 0 0 0 0 0 0 0 0 0 0 0 0 0 0 0 0 0 127 0" result="hardAlpha"/>
<feOffset dx="-5.18422" dy="17.6264"/>
<feGaussianBlur stdDeviation="15.0342"/>
<feComposite in2="hardAlpha" operator="out"/>
<feColorMatrix type="matrix" values="0 0 0 0 0.0775104 0 0 0 0 0.241623 0 0 0 0 0.157958 0 0 0 0.46 0"/>
<feBlend mode="normal" in2="BackgroundImageFix" result="effect1_dropShadow_643_111"/>
<feBlend mode="normal" in="SourceGraphic" in2="effect1_dropShadow_643_111" result="shape"/>
</filter>
<linearGradient id="paint0_linear_643_111" x1="206.526" y1="237.985" x2="80.364" y2="142.218" gradientUnits="userSpaceOnUse">
<stop stop-color="#237249"/>
<stop offset="1" stop-color="#35C66B"/>
</linearGradient>
</defs>
</svg>
