<svg width="84" height="84" viewBox="0 0 84 84" fill="none" xmlns="http://www.w3.org/2000/svg">
<path d="M83.25 42.0005C83.25 35.9385 83.2497 31.4256 83.029 27.8222C82.8088 24.2246 82.3709 21.5825 81.5171 19.2586C78.658 11.4761 72.5244 5.34251 64.7419 2.48337C62.418 1.62961 59.7759 1.19172 56.1783 0.971449C52.5748 0.750817 48.062 0.75049 42 0.75049C35.938 0.75049 31.4252 0.750817 27.8217 0.971448C24.2241 1.19172 21.582 1.62961 19.2581 2.48337C11.4756 5.34251 5.34202 11.4761 2.48288 19.2586C1.62912 21.5825 1.19123 24.2246 0.970957 27.8222C0.750325 31.4256 0.749998 35.9385 0.749998 42.0005C0.749998 48.0625 0.750325 52.5753 0.970956 56.1788C1.19123 59.7764 1.62912 62.4185 2.48288 64.7424C5.34202 72.5249 11.4756 78.6585 19.2581 81.5176C21.582 82.3714 24.2241 82.8093 27.8217 83.0295C31.4251 83.2502 35.938 83.2505 42 83.2505C48.062 83.2505 52.5748 83.2502 56.1783 83.0295C59.7759 82.8093 62.418 82.3714 64.7419 81.5176C72.5244 78.6585 78.658 72.5249 81.5171 64.7424C82.3709 62.4185 82.8088 59.7764 83.029 56.1788C83.2497 52.5753 83.25 48.0625 83.25 42.0005Z" stroke="url(#paint0_linear_643_300)" stroke-width="1.5"/>
<path d="M41.25 60.0005C41.25 60.4147 41.5858 60.7505 42 60.7505C42.4142 60.7505 42.75 60.4147 42.75 60.0005L41.25 60.0005ZM42.5303 24.4702C42.2374 24.1773 41.7626 24.1773 41.4697 24.4702L36.6967 29.2431C36.4038 29.536 36.4038 30.0109 36.6967 30.3038C36.9896 30.5967 37.4645 30.5967 37.7574 30.3038L42 26.0611L46.2426 30.3038C46.5355 30.5967 47.0104 30.5967 47.3033 30.3038C47.5962 30.0109 47.5962 29.536 47.3033 29.2431L42.5303 24.4702ZM42.75 60.0005L42.75 25.0005L41.25 25.0005L41.25 60.0005L42.75 60.0005Z" fill="url(#paint1_linear_643_300)"/>
<defs>
<linearGradient id="paint0_linear_643_300" x1="54.9419" y1="84.0005" x2="58.0642" y2="20.1289" gradientUnits="userSpaceOnUse">
<stop stop-color="#237249"/>
<stop offset="1" stop-color="#35C66B"/>
</linearGradient>
<linearGradient id="paint1_linear_643_300" x1="42.6541" y1="25.0005" x2="54.2758" y2="31.793" gradientUnits="userSpaceOnUse">
<stop stop-color="#237249"/>
<stop offset="1" stop-color="#35C66B"/>
</linearGradient>
</defs>
</svg>
